solid OpenSCAD_Model
  facet normal -0 0 -1
    outer loop
      vertex 17.6777 -17.6777 0
      vertex 9.56708 -23.097 0
      vertex 23.8065 -6 0
    endloop
  endfacet
  facet normal -0 0 -1
    outer loop
      vertex 9.56708 -23.097 0
      vertex 0 -25 0
      vertex 23.8065 -6 0
    endloop
  endfacet
  facet normal 0 0 -1
    outer loop
      vertex 17.6777 -17.6777 0
      vertex 23.8065 -6 0
      vertex 23.097 -9.56708 0
    endloop
  endfacet
  facet normal 0 0 -1
    outer loop
      vertex 37.5433 -2.2961 0
      vertex 34 0 0
      vertex 38 0 0
    endloop
  endfacet
  facet normal 0 -0 -1
    outer loop
      vertex 33.4142 -1.4142 0
      vertex 36.2426 -4.24263 0
      vertex 32.7654 -1.84775 0
    endloop
  endfacet
  facet normal 0 0 -1
    outer loop
      vertex 34 0 0
      vertex 33.8477 0.765366 0
      vertex 37.5433 2.2961 0
    endloop
  endfacet
  facet normal -0 0 -1
    outer loop
      vertex 34.2961 5.54327 0
      vertex 32 2 0
      vertex 32 6 0
    endloop
  endfacet
  facet normal 0 0 -1
    outer loop
      vertex 32 6 0
      vertex 31.2346 1.84775 0
      vertex 30.5858 1.4142 0
    endloop
  endfacet
  facet normal 0 0 -1
    outer loop
      vertex 23.8065 6 0
      vertex 30.5858 1.4142 0
      vertex 30.1522 0.765366 0
    endloop
  endfacet
  facet normal 0 0 -1
    outer loop
      vertex 31.2346 -1.84775 0
      vertex 32 -2 0
      vertex 32 -6 0
    endloop
  endfacet
  facet normal 0 -0 -1
    outer loop
      vertex -9.56708 23.097 0
      vertex 0 25 0
      vertex -23.8065 6 0
    endloop
  endfacet
  facet normal 0 0 -1
    outer loop
      vertex 23.8065 6 0
      vertex 17.6777 17.6777 0
      vertex 23.097 9.56708 0
    endloop
  endfacet
  facet normal 0 0 -1
    outer loop
      vertex 23.8065 6 0
      vertex 9.56708 23.097 0
      vertex 17.6777 17.6777 0
    endloop
  endfacet
  facet normal 0 0 -1
    outer loop
      vertex 23.8065 6 0
      vertex 0 25 0
      vertex 9.56708 23.097 0
    endloop
  endfacet
  facet normal 0 -0 -1
    outer loop
      vertex -17.6777 17.6777 0
      vertex -9.56708 23.097 0
      vertex -23.8065 6 0
    endloop
  endfacet
  facet normal 0 -0 -1
    outer loop
      vertex -23.097 9.56708 0
      vertex -17.6777 17.6777 0
      vertex -23.8065 6 0
    endloop
  endfacet
  facet normal 0 0 -1
    outer loop
      vertex -23.8065 6 0
      vertex 0 25 0
      vertex 23.8065 6 0
    endloop
  endfacet
  facet normal 0 0 -1
    outer loop
      vertex 23.8065 -6 0
      vertex -23.8065 6 0
      vertex 23.8065 6 0
    endloop
  endfacet
  facet normal 0 0 -1
    outer loop
      vertex 23.8065 -6 0
      vertex -23.8065 -6 0
      vertex -23.8065 6 0
    endloop
  endfacet
  facet normal 0 -0 -1
    outer loop
      vertex -36.2426 4.24263 0
      vertex -33.8477 0.765366 0
      vertex -37.5433 2.2961 0
    endloop
  endfacet
  facet normal 0 0 -1
    outer loop
      vertex -36.2426 -4.24263 0
      vertex -33.4142 -1.4142 0
      vertex -32.7654 -1.84775 0
    endloop
  endfacet
  facet normal 0 0 -1
    outer loop
      vertex -34.2961 -5.54327 0
      vertex -36.2426 -4.24263 0
      vertex -32.7654 -1.84775 0
    endloop
  endfacet
  facet normal 0 -0 -1
    outer loop
      vertex -32.7654 -1.84775 0
      vertex -32 -2 0
      vertex -34.2961 -5.54327 0
    endloop
  endfacet
  facet normal 0 0 -1
    outer loop
      vertex -34.2961 -5.54327 0
      vertex -32 -2 0
      vertex -32 -6 0
    endloop
  endfacet
  facet normal 0 -0 -1
    outer loop
      vertex -37.5433 2.2961 0
      vertex -34 0 0
      vertex -38 0 0
    endloop
  endfacet
  facet normal -0 0 -1
    outer loop
      vertex 23.8065 -6 0
      vertex 0 -25 0
      vertex -23.8065 -6 0
    endloop
  endfacet
  facet normal 0 0 -1
    outer loop
      vertex -23.8065 -6 0
      vertex -9.56708 -23.097 0
      vertex -17.6777 -17.6777 0
    endloop
  endfacet
  facet normal 0 0 -1
    outer loop
      vertex -23.8065 -6 0
      vertex -30.5858 -1.4142 0
      vertex -30.1522 -0.765366 0
    endloop
  endfacet
  facet normal 0 0 -1
    outer loop
      vertex -23.8065 -6 0
      vertex -17.6777 -17.6777 0
      vertex -23.097 -9.56708 0
    endloop
  endfacet
  facet normal 0 0 -1
    outer loop
      vertex -23.8065 -6 0
      vertex 0 -25 0
      vertex -9.56708 -23.097 0
    endloop
  endfacet
  facet normal 0 0 -1
    outer loop
      vertex -36.2426 4.24263 0
      vertex -33.4142 1.4142 0
      vertex -33.8477 0.765366 0
    endloop
  endfacet
  facet normal 0 0 -1
    outer loop
      vertex -36.2426 -4.24263 0
      vertex -33.8477 -0.765366 0
      vertex -33.4142 -1.4142 0
    endloop
  endfacet
  facet normal -0 0 -1
    outer loop
      vertex -33.8477 -0.765366 0
      vertex -37.5433 -2.2961 0
      vertex -34 0 0
    endloop
  endfacet
  facet normal 0 0 -1
    outer loop
      vertex -36.2426 -4.24263 0
      vertex -37.5433 -2.2961 0
      vertex -33.8477 -0.765366 0
    endloop
  endfacet
  facet normal -0 0 -1
    outer loop
      vertex -34 0 0
      vertex -37.5433 -2.2961 0
      vertex -38 0 0
    endloop
  endfacet
  facet normal -0 0 -1
    outer loop
      vertex -33.8477 0.765366 0
      vertex -34 0 0
      vertex -37.5433 2.2961 0
    endloop
  endfacet
  facet normal 0 0 -1
    outer loop
      vertex -36.2426 4.24263 0
      vertex -32.7654 1.84775 0
      vertex -33.4142 1.4142 0
    endloop
  endfacet
  facet normal 0 0 -1
    outer loop
      vertex -36.2426 4.24263 0
      vertex -34.2961 5.54327 0
      vertex -32.7654 1.84775 0
    endloop
  endfacet
  facet normal 0 0 -1
    outer loop
      vertex -32 2 0
      vertex -34.2961 5.54327 0
      vertex -32 6 0
    endloop
  endfacet
  facet normal 0 0 -1
    outer loop
      vertex -32.7654 1.84775 0
      vertex -34.2961 5.54327 0
      vertex -32 2 0
    endloop
  endfacet
  facet normal 0 0 -1
    outer loop
      vertex -32 2 0
      vertex -32 6 0
      vertex -31.2346 1.84775 0
    endloop
  endfacet
  facet normal 0 0 -1
    outer loop
      vertex -31.2346 1.84775 0
      vertex -32 6 0
      vertex -30.5858 1.4142 0
    endloop
  endfacet
  facet normal 0 0 -1
    outer loop
      vertex -30.1522 0.765366 0
      vertex -30.5858 1.4142 0
      vertex -23.8065 6 0
    endloop
  endfacet
  facet normal 0 0 -1
    outer loop
      vertex -30.5858 1.4142 0
      vertex -32 6 0
      vertex -23.8065 6 0
    endloop
  endfacet
  facet normal 0 0 -1
    outer loop
      vertex -30.1522 0.765366 0
      vertex -23.8065 6 0
      vertex -30 0 0
    endloop
  endfacet
  facet normal 0 0 -1
    outer loop
      vertex -30 0 0
      vertex -23.8065 6 0
      vertex -23.8065 -6 0
    endloop
  endfacet
  facet normal 0 0 -1
    outer loop
      vertex -23.8065 -6 0
      vertex -30.1522 -0.765366 0
      vertex -30 0 0
    endloop
  endfacet
  facet normal 0 -0 -1
    outer loop
      vertex -30.5858 -1.4142 0
      vertex -23.8065 -6 0
      vertex -32 -6 0
    endloop
  endfacet
  facet normal 0 0 -1
    outer loop
      vertex -32 -2 0
      vertex -31.2346 -1.84775 0
      vertex -32 -6 0
    endloop
  endfacet
  facet normal 0 -0 -1
    outer loop
      vertex -31.2346 -1.84775 0
      vertex -30.5858 -1.4142 0
      vertex -32 -6 0
    endloop
  endfacet
  facet normal 0 0 -1
    outer loop
      vertex 34.2961 -5.54327 0
      vertex 32 -2 0
      vertex 32.7654 -1.84775 0
    endloop
  endfacet
  facet normal 0 0 -1
    outer loop
      vertex 32 -2 0
      vertex 34.2961 -5.54327 0
      vertex 32 -6 0
    endloop
  endfacet
  facet normal -0 -0 -1
    outer loop
      vertex 31.2346 -1.84775 0
      vertex 32 -6 0
      vertex 30.5858 -1.4142 0
    endloop
  endfacet
  facet normal 0 -0 -1
    outer loop
      vertex 30.1522 -0.765366 0
      vertex 30.5858 -1.4142 0
      vertex 23.8065 -6 0
    endloop
  endfacet
  facet normal 0 -0 -1
    outer loop
      vertex 30.5858 -1.4142 0
      vertex 32 -6 0
      vertex 23.8065 -6 0
    endloop
  endfacet
  facet normal 0 -0 -1
    outer loop
      vertex 30 0 0
      vertex 30.1522 -0.765366 0
      vertex 23.8065 -6 0
    endloop
  endfacet
  facet normal 0 0 -1
    outer loop
      vertex 23.8065 6 0
      vertex 30 0 0
      vertex 23.8065 -6 0
    endloop
  endfacet
  facet normal 0 0 -1
    outer loop
      vertex 23.8065 6 0
      vertex 30.1522 0.765366 0
      vertex 30 0 0
    endloop
  endfacet
  facet normal -0 0 -1
    outer loop
      vertex 32 6 0
      vertex 30.5858 1.4142 0
      vertex 23.8065 6 0
    endloop
  endfacet
  facet normal -0 0 -1
    outer loop
      vertex 32 2 0
      vertex 31.2346 1.84775 0
      vertex 32 6 0
    endloop
  endfacet
  facet normal 0 0 -1
    outer loop
      vertex 32.7654 1.84775 0
      vertex 34.2961 5.54327 0
      vertex 36.2426 4.24263 0
    endloop
  endfacet
  facet normal 0 0 -1
    outer loop
      vertex 32 2 0
      vertex 34.2961 5.54327 0
      vertex 32.7654 1.84775 0
    endloop
  endfacet
  facet normal 0 0 -1
    outer loop
      vertex 33.4142 1.4142 0
      vertex 36.2426 4.24263 0
      vertex 33.8477 0.765366 0
    endloop
  endfacet
  facet normal 0 0 -1
    outer loop
      vertex 32.7654 1.84775 0
      vertex 36.2426 4.24263 0
      vertex 33.4142 1.4142 0
    endloop
  endfacet
  facet normal 0 0 -1
    outer loop
      vertex 33.8477 0.765366 0
      vertex 36.2426 4.24263 0
      vertex 37.5433 2.2961 0
    endloop
  endfacet
  facet normal 0 0 -1
    outer loop
      vertex 34 0 0
      vertex 37.5433 2.2961 0
      vertex 38 0 0
    endloop
  endfacet
  facet normal 0 0 -1
    outer loop
      vertex 33.8477 -0.765366 0
      vertex 34 0 0
      vertex 37.5433 -2.2961 0
    endloop
  endfacet
  facet normal 0 0 -1
    outer loop
      vertex 36.2426 -4.24263 0
      vertex 33.8477 -0.765366 0
      vertex 37.5433 -2.2961 0
    endloop
  endfacet
  facet normal 0 0 -1
    outer loop
      vertex 36.2426 -4.24263 0
      vertex 33.4142 -1.4142 0
      vertex 33.8477 -0.765366 0
    endloop
  endfacet
  facet normal 0 0 -1
    outer loop
      vertex 34.2961 -5.54327 0
      vertex 32.7654 -1.84775 0
      vertex 36.2426 -4.24263 0
    endloop
  endfacet
  facet normal 0 0 1
    outer loop
      vertex 23.8065 -6 2
      vertex 9.56708 -23.097 2
      vertex 17.6777 -17.6777 2
    endloop
  endfacet
  facet normal 0 0 1
    outer loop
      vertex 23.8065 -6 2
      vertex 0 -25 2
      vertex 9.56708 -23.097 2
    endloop
  endfacet
  facet normal 0 -0 1
    outer loop
      vertex 23.097 -9.56708 2
      vertex 23.8065 -6 2
      vertex 17.6777 -17.6777 2
    endloop
  endfacet
  facet normal 0 0 1
    outer loop
      vertex 38 0 2
      vertex 34 0 2
      vertex 37.5433 -2.2961 2
    endloop
  endfacet
  facet normal -0 0 1
    outer loop
      vertex 32.7654 -1.84775 2
      vertex 36.2426 -4.24263 2
      vertex 33.4142 -1.4142 2
    endloop
  endfacet
  facet normal 0 0 1
    outer loop
      vertex 37.5433 2.2961 2
      vertex 33.8477 0.765366 2
      vertex 34 0 2
    endloop
  endfacet
  facet normal 0 0 1
    outer loop
      vertex 32 6 2
      vertex 32 2 2
      vertex 34.2961 5.54327 2
    endloop
  endfacet
  facet normal 0 0 1
    outer loop
      vertex 30.5858 1.4142 2
      vertex 31.2346 1.84775 2
      vertex 32 6 2
    endloop
  endfacet
  facet normal 0 -0 1
    outer loop
      vertex 30.1522 0.765366 2
      vertex 30.5858 1.4142 2
      vertex 23.8065 6 2
    endloop
  endfacet
  facet normal 0 -0 1
    outer loop
      vertex 32 -6 2
      vertex 32 -2 2
      vertex 31.2346 -1.84775 2
    endloop
  endfacet
  facet normal 0 0 1
    outer loop
      vertex -23.8065 6 2
      vertex 0 25 2
      vertex -9.56708 23.097 2
    endloop
  endfacet
  facet normal 0 0 1
    outer loop
      vertex 23.097 9.56708 2
      vertex 17.6777 17.6777 2
      vertex 23.8065 6 2
    endloop
  endfacet
  facet normal 0 0 1
    outer loop
      vertex 17.6777 17.6777 2
      vertex 9.56708 23.097 2
      vertex 23.8065 6 2
    endloop
  endfacet
  facet normal 0 0 1
    outer loop
      vertex 9.56708 23.097 2
      vertex 0 25 2
      vertex 23.8065 6 2
    endloop
  endfacet
  facet normal 0 0 1
    outer loop
      vertex -23.8065 6 2
      vertex -9.56708 23.097 2
      vertex -17.6777 17.6777 2
    endloop
  endfacet
  facet normal 0 0 1
    outer loop
      vertex -23.8065 6 2
      vertex -17.6777 17.6777 2
      vertex -23.097 9.56708 2
    endloop
  endfacet
  facet normal 0 0 1
    outer loop
      vertex 23.8065 6 2
      vertex 0 25 2
      vertex -23.8065 6 2
    endloop
  endfacet
  facet normal 0 0 1
    outer loop
      vertex 23.8065 6 2
      vertex -23.8065 6 2
      vertex 23.8065 -6 2
    endloop
  endfacet
  facet normal 0 0 1
    outer loop
      vertex -23.8065 6 2
      vertex -23.8065 -6 2
      vertex 23.8065 -6 2
    endloop
  endfacet
  facet normal -0 0 1
    outer loop
      vertex -37.5433 2.2961 2
      vertex -33.8477 0.765366 2
      vertex -36.2426 4.24263 2
    endloop
  endfacet
  facet normal 0 0 1
    outer loop
      vertex -32.7654 -1.84775 2
      vertex -33.4142 -1.4142 2
      vertex -36.2426 -4.24263 2
    endloop
  endfacet
  facet normal 0 0 1
    outer loop
      vertex -32.7654 -1.84775 2
      vertex -36.2426 -4.24263 2
      vertex -34.2961 -5.54327 2
    endloop
  endfacet
  facet normal 0 0 1
    outer loop
      vertex -34.2961 -5.54327 2
      vertex -32 -2 2
      vertex -32.7654 -1.84775 2
    endloop
  endfacet
  facet normal 0 -0 1
    outer loop
      vertex -32 -6 2
      vertex -32 -2 2
      vertex -34.2961 -5.54327 2
    endloop
  endfacet
  facet normal 0 0 1
    outer loop
      vertex -38 0 2
      vertex -34 0 2
      vertex -37.5433 2.2961 2
    endloop
  endfacet
  facet normal -0 0 1
    outer loop
      vertex -23.8065 -6 2
      vertex 0 -25 2
      vertex 23.8065 -6 2
    endloop
  endfacet
  facet normal -0 -0 1
    outer loop
      vertex -17.6777 -17.6777 2
      vertex -9.56708 -23.097 2
      vertex -23.8065 -6 2
    endloop
  endfacet
  facet normal 0 0 1
    outer loop
      vertex -30.1522 -0.765366 2
      vertex -30.5858 -1.4142 2
      vertex -23.8065 -6 2
    endloop
  endfacet
  facet normal -0 -0 1
    outer loop
      vertex -23.097 -9.56708 2
      vertex -17.6777 -17.6777 2
      vertex -23.8065 -6 2
    endloop
  endfacet
  facet normal -0 -0 1
    outer loop
      vertex -9.56708 -23.097 2
      vertex 0 -25 2
      vertex -23.8065 -6 2
    endloop
  endfacet
  facet normal 0 -0 1
    outer loop
      vertex -33.8477 0.765366 2
      vertex -33.4142 1.4142 2
      vertex -36.2426 4.24263 2
    endloop
  endfacet
  facet normal 0 0 1
    outer loop
      vertex -33.4142 -1.4142 2
      vertex -33.8477 -0.765366 2
      vertex -36.2426 -4.24263 2
    endloop
  endfacet
  facet normal 0 0 1
    outer loop
      vertex -34 0 2
      vertex -37.5433 -2.2961 2
      vertex -33.8477 -0.765366 2
    endloop
  endfacet
  facet normal 0 0 1
    outer loop
      vertex -33.8477 -0.765366 2
      vertex -37.5433 -2.2961 2
      vertex -36.2426 -4.24263 2
    endloop
  endfacet
  facet normal -0 0 1
    outer loop
      vertex -38 0 2
      vertex -37.5433 -2.2961 2
      vertex -34 0 2
    endloop
  endfacet
  facet normal 0 0 1
    outer loop
      vertex -37.5433 2.2961 2
      vertex -34 0 2
      vertex -33.8477 0.765366 2
    endloop
  endfacet
  facet normal 0 -0 1
    outer loop
      vertex -33.4142 1.4142 2
      vertex -32.7654 1.84775 2
      vertex -36.2426 4.24263 2
    endloop
  endfacet
  facet normal 0 0 1
    outer loop
      vertex -32.7654 1.84775 2
      vertex -34.2961 5.54327 2
      vertex -36.2426 4.24263 2
    endloop
  endfacet
  facet normal 0 0 1
    outer loop
      vertex -32 6 2
      vertex -34.2961 5.54327 2
      vertex -32 2 2
    endloop
  endfacet
  facet normal 0 0 1
    outer loop
      vertex -32 2 2
      vertex -34.2961 5.54327 2
      vertex -32.7654 1.84775 2
    endloop
  endfacet
  facet normal 0 0 1
    outer loop
      vertex -31.2346 1.84775 2
      vertex -32 6 2
      vertex -32 2 2
    endloop
  endfacet
  facet normal 0 0 1
    outer loop
      vertex -30.5858 1.4142 2
      vertex -32 6 2
      vertex -31.2346 1.84775 2
    endloop
  endfacet
  facet normal 0 0 1
    outer loop
      vertex -23.8065 6 2
      vertex -30.5858 1.4142 2
      vertex -30.1522 0.765366 2
    endloop
  endfacet
  facet normal 0 0 1
    outer loop
      vertex -23.8065 6 2
      vertex -32 6 2
      vertex -30.5858 1.4142 2
    endloop
  endfacet
  facet normal 0 -0 1
    outer loop
      vertex -30 0 2
      vertex -23.8065 6 2
      vertex -30.1522 0.765366 2
    endloop
  endfacet
  facet normal 0 -0 1
    outer loop
      vertex -23.8065 -6 2
      vertex -23.8065 6 2
      vertex -30 0 2
    endloop
  endfacet
  facet normal 0 0 1
    outer loop
      vertex -30 0 2
      vertex -30.1522 -0.765366 2
      vertex -23.8065 -6 2
    endloop
  endfacet
  facet normal 0 0 1
    outer loop
      vertex -32 -6 2
      vertex -23.8065 -6 2
      vertex -30.5858 -1.4142 2
    endloop
  endfacet
  facet normal 0 0 1
    outer loop
      vertex -32 -6 2
      vertex -31.2346 -1.84775 2
      vertex -32 -2 2
    endloop
  endfacet
  facet normal 0 0 1
    outer loop
      vertex -32 -6 2
      vertex -30.5858 -1.4142 2
      vertex -31.2346 -1.84775 2
    endloop
  endfacet
  facet normal 0 0 1
    outer loop
      vertex 32.7654 -1.84775 2
      vertex 32 -2 2
      vertex 34.2961 -5.54327 2
    endloop
  endfacet
  facet normal 0 0 1
    outer loop
      vertex 32 -6 2
      vertex 34.2961 -5.54327 2
      vertex 32 -2 2
    endloop
  endfacet
  facet normal 0 0 1
    outer loop
      vertex 30.5858 -1.4142 2
      vertex 32 -6 2
      vertex 31.2346 -1.84775 2
    endloop
  endfacet
  facet normal 0 0 1
    outer loop
      vertex 23.8065 -6 2
      vertex 30.5858 -1.4142 2
      vertex 30.1522 -0.765366 2
    endloop
  endfacet
  facet normal 0 0 1
    outer loop
      vertex 23.8065 -6 2
      vertex 32 -6 2
      vertex 30.5858 -1.4142 2
    endloop
  endfacet
  facet normal 0 0 1
    outer loop
      vertex 23.8065 -6 2
      vertex 30.1522 -0.765366 2
      vertex 30 0 2
    endloop
  endfacet
  facet normal 0 0 1
    outer loop
      vertex 23.8065 -6 2
      vertex 30 0 2
      vertex 23.8065 6 2
    endloop
  endfacet
  facet normal 0 -0 1
    outer loop
      vertex 30 0 2
      vertex 30.1522 0.765366 2
      vertex 23.8065 6 2
    endloop
  endfacet
  facet normal -0 0 1
    outer loop
      vertex 23.8065 6 2
      vertex 30.5858 1.4142 2
      vertex 32 6 2
    endloop
  endfacet
  facet normal 0 0 1
    outer loop
      vertex 32 6 2
      vertex 31.2346 1.84775 2
      vertex 32 2 2
    endloop
  endfacet
  facet normal 0 0 1
    outer loop
      vertex 36.2426 4.24263 2
      vertex 34.2961 5.54327 2
      vertex 32.7654 1.84775 2
    endloop
  endfacet
  facet normal 0 -0 1
    outer loop
      vertex 32.7654 1.84775 2
      vertex 34.2961 5.54327 2
      vertex 32 2 2
    endloop
  endfacet
  facet normal 0 -0 1
    outer loop
      vertex 33.8477 0.765366 2
      vertex 36.2426 4.24263 2
      vertex 33.4142 1.4142 2
    endloop
  endfacet
  facet normal 0 -0 1
    outer loop
      vertex 33.4142 1.4142 2
      vertex 36.2426 4.24263 2
      vertex 32.7654 1.84775 2
    endloop
  endfacet
  facet normal 0 0 1
    outer loop
      vertex 37.5433 2.2961 2
      vertex 36.2426 4.24263 2
      vertex 33.8477 0.765366 2
    endloop
  endfacet
  facet normal 0 0 1
    outer loop
      vertex 38 0 2
      vertex 37.5433 2.2961 2
      vertex 34 0 2
    endloop
  endfacet
  facet normal 0 0 1
    outer loop
      vertex 37.5433 -2.2961 2
      vertex 34 0 2
      vertex 33.8477 -0.765366 2
    endloop
  endfacet
  facet normal 0 0 1
    outer loop
      vertex 37.5433 -2.2961 2
      vertex 33.8477 -0.765366 2
      vertex 36.2426 -4.24263 2
    endloop
  endfacet
  facet normal 0 0 1
    outer loop
      vertex 33.8477 -0.765366 2
      vertex 33.4142 -1.4142 2
      vertex 36.2426 -4.24263 2
    endloop
  endfacet
  facet normal 0 0 1
    outer loop
      vertex 36.2426 -4.24263 2
      vertex 32.7654 -1.84775 2
      vertex 34.2961 -5.54327 2
    endloop
  endfacet
  facet normal 0.555567 -0.831472 0
    outer loop
      vertex 17.6777 -17.6777 0
      vertex 9.56708 -23.097 2
      vertex 9.56708 -23.097 0
    endloop
  endfacet
  facet normal 0.555567 -0.831472 0
    outer loop
      vertex 17.6777 -17.6777 0
      vertex 17.6777 -17.6777 2
      vertex 9.56708 -23.097 2
    endloop
  endfacet
  facet normal 0.831472 -0.555567 0
    outer loop
      vertex 23.097 -9.56708 0
      vertex 17.6777 -17.6777 2
      vertex 17.6777 -17.6777 0
    endloop
  endfacet
  facet normal 0.831472 -0.555567 0
    outer loop
      vertex 23.097 -9.56708 0
      vertex 23.097 -9.56708 2
      vertex 17.6777 -17.6777 2
    endloop
  endfacet
  facet normal 0.980787 -0.195081 0
    outer loop
      vertex 23.8065 -6 0
      vertex 23.097 -9.56708 2
      vertex 23.097 -9.56708 0
    endloop
  endfacet
  facet normal 0.980787 -0.195081 0
    outer loop
      vertex 23.8065 -6 0
      vertex 23.8065 -6 2
      vertex 23.097 -9.56708 2
    endloop
  endfacet
  facet normal 0 -1 0
    outer loop
      vertex 32 -6 0
      vertex 23.8065 -6 2
      vertex 23.8065 -6 0
    endloop
  endfacet
  facet normal 0 -1 0
    outer loop
      vertex 32 -6 0
      vertex 32 -6 2
      vertex 23.8065 -6 2
    endloop
  endfacet
  facet normal 0.195093 -0.980785 0
    outer loop
      vertex 34.2961 -5.54327 0
      vertex 32 -6 2
      vertex 32 -6 0
    endloop
  endfacet
  facet normal 0.195093 -0.980785 0
    outer loop
      vertex 34.2961 -5.54327 0
      vertex 34.2961 -5.54327 2
      vertex 32 -6 2
    endloop
  endfacet
  facet normal 0.555579 -0.831464 0
    outer loop
      vertex 36.2426 -4.24263 0
      vertex 34.2961 -5.54327 2
      vertex 34.2961 -5.54327 0
    endloop
  endfacet
  facet normal 0.555579 -0.831464 0
    outer loop
      vertex 36.2426 -4.24263 0
      vertex 36.2426 -4.24263 2
      vertex 34.2961 -5.54327 2
    endloop
  endfacet
  facet normal 0.831456 -0.555591 0
    outer loop
      vertex 37.5433 -2.2961 0
      vertex 36.2426 -4.24263 2
      vertex 36.2426 -4.24263 0
    endloop
  endfacet
  facet normal 0.831456 -0.555591 0
    outer loop
      vertex 37.5433 -2.2961 0
      vertex 37.5433 -2.2961 2
      vertex 36.2426 -4.24263 2
    endloop
  endfacet
  facet normal 0.980787 -0.195081 0
    outer loop
      vertex 38 0 0
      vertex 37.5433 -2.2961 2
      vertex 37.5433 -2.2961 0
    endloop
  endfacet
  facet normal 0.980787 -0.195081 0
    outer loop
      vertex 38 0 0
      vertex 38 0 2
      vertex 37.5433 -2.2961 2
    endloop
  endfacet
  facet normal 0.980787 0.195081 0
    outer loop
      vertex 37.5433 2.2961 0
      vertex 38 0 2
      vertex 38 0 0
    endloop
  endfacet
  facet normal 0.980787 0.195081 -0
    outer loop
      vertex 37.5433 2.2961 0
      vertex 37.5433 2.2961 2
      vertex 38 0 2
    endloop
  endfacet
  facet normal 0.831456 0.555591 0
    outer loop
      vertex 36.2426 4.24263 0
      vertex 37.5433 2.2961 2
      vertex 37.5433 2.2961 0
    endloop
  endfacet
  facet normal 0.831456 0.555591 -0
    outer loop
      vertex 36.2426 4.24263 0
      vertex 36.2426 4.24263 2
      vertex 37.5433 2.2961 2
    endloop
  endfacet
  facet normal 0.555579 0.831464 0
    outer loop
      vertex 34.2961 5.54327 0
      vertex 36.2426 4.24263 2
      vertex 36.2426 4.24263 0
    endloop
  endfacet
  facet normal 0.555579 0.831464 -0
    outer loop
      vertex 34.2961 5.54327 0
      vertex 34.2961 5.54327 2
      vertex 36.2426 4.24263 2
    endloop
  endfacet
  facet normal 0.195093 0.980785 0
    outer loop
      vertex 32 6 0
      vertex 34.2961 5.54327 2
      vertex 34.2961 5.54327 0
    endloop
  endfacet
  facet normal 0.195093 0.980785 -0
    outer loop
      vertex 32 6 0
      vertex 32 6 2
      vertex 34.2961 5.54327 2
    endloop
  endfacet
  facet normal 0 1 0
    outer loop
      vertex 23.8065 6 0
      vertex 32 6 2
      vertex 32 6 0
    endloop
  endfacet
  facet normal 0 1 0
    outer loop
      vertex 23.8065 6 0
      vertex 23.8065 6 2
      vertex 32 6 2
    endloop
  endfacet
  facet normal 0.980787 0.195081 0
    outer loop
      vertex 23.097 9.56708 0
      vertex 23.8065 6 2
      vertex 23.8065 6 0
    endloop
  endfacet
  facet normal 0.980787 0.195081 -0
    outer loop
      vertex 23.097 9.56708 0
      vertex 23.097 9.56708 2
      vertex 23.8065 6 2
    endloop
  endfacet
  facet normal 0.831472 0.555567 0
    outer loop
      vertex 17.6777 17.6777 0
      vertex 23.097 9.56708 2
      vertex 23.097 9.56708 0
    endloop
  endfacet
  facet normal 0.831472 0.555567 -0
    outer loop
      vertex 17.6777 17.6777 0
      vertex 17.6777 17.6777 2
      vertex 23.097 9.56708 2
    endloop
  endfacet
  facet normal 0.555567 0.831472 0
    outer loop
      vertex 9.56708 23.097 0
      vertex 17.6777 17.6777 2
      vertex 17.6777 17.6777 0
    endloop
  endfacet
  facet normal 0.555567 0.831472 -0
    outer loop
      vertex 9.56708 23.097 0
      vertex 9.56708 23.097 2
      vertex 17.6777 17.6777 2
    endloop
  endfacet
  facet normal 0.195089 0.980785 0
    outer loop
      vertex 0 25 0
      vertex 9.56708 23.097 2
      vertex 9.56708 23.097 0
    endloop
  endfacet
  facet normal 0.195089 0.980785 -0
    outer loop
      vertex 0 25 0
      vertex 0 25 2
      vertex 9.56708 23.097 2
    endloop
  endfacet
  facet normal -0.195089 0.980785 0
    outer loop
      vertex -9.56708 23.097 0
      vertex 0 25 2
      vertex 0 25 0
    endloop
  endfacet
  facet normal -0.195089 0.980785 0
    outer loop
      vertex -9.56708 23.097 0
      vertex -9.56708 23.097 2
      vertex 0 25 2
    endloop
  endfacet
  facet normal -0.555567 0.831472 0
    outer loop
      vertex -17.6777 17.6777 0
      vertex -9.56708 23.097 2
      vertex -9.56708 23.097 0
    endloop
  endfacet
  facet normal -0.555567 0.831472 0
    outer loop
      vertex -17.6777 17.6777 0
      vertex -17.6777 17.6777 2
      vertex -9.56708 23.097 2
    endloop
  endfacet
  facet normal -0.831472 0.555567 0
    outer loop
      vertex -23.097 9.56708 0
      vertex -17.6777 17.6777 2
      vertex -17.6777 17.6777 0
    endloop
  endfacet
  facet normal -0.831472 0.555567 0
    outer loop
      vertex -23.097 9.56708 0
      vertex -23.097 9.56708 2
      vertex -17.6777 17.6777 2
    endloop
  endfacet
  facet normal -0.980787 0.195081 0
    outer loop
      vertex -23.8065 6 0
      vertex -23.097 9.56708 2
      vertex -23.097 9.56708 0
    endloop
  endfacet
  facet normal -0.980787 0.195081 0
    outer loop
      vertex -23.8065 6 0
      vertex -23.8065 6 2
      vertex -23.097 9.56708 2
    endloop
  endfacet
  facet normal 0 1 0
    outer loop
      vertex -32 6 0
      vertex -23.8065 6 2
      vertex -23.8065 6 0
    endloop
  endfacet
  facet normal 0 1 0
    outer loop
      vertex -32 6 0
      vertex -32 6 2
      vertex -23.8065 6 2
    endloop
  endfacet
  facet normal -0.195093 0.980785 0
    outer loop
      vertex -34.2961 5.54327 0
      vertex -32 6 2
      vertex -32 6 0
    endloop
  endfacet
  facet normal -0.195093 0.980785 0
    outer loop
      vertex -34.2961 5.54327 0
      vertex -34.2961 5.54327 2
      vertex -32 6 2
    endloop
  endfacet
  facet normal -0.555579 0.831464 0
    outer loop
      vertex -36.2426 4.24263 0
      vertex -34.2961 5.54327 2
      vertex -34.2961 5.54327 0
    endloop
  endfacet
  facet normal -0.555579 0.831464 0
    outer loop
      vertex -36.2426 4.24263 0
      vertex -36.2426 4.24263 2
      vertex -34.2961 5.54327 2
    endloop
  endfacet
  facet normal -0.831456 0.555591 0
    outer loop
      vertex -37.5433 2.2961 0
      vertex -36.2426 4.24263 2
      vertex -36.2426 4.24263 0
    endloop
  endfacet
  facet normal -0.831456 0.555591 0
    outer loop
      vertex -37.5433 2.2961 0
      vertex -37.5433 2.2961 2
      vertex -36.2426 4.24263 2
    endloop
  endfacet
  facet normal -0.980787 0.195081 0
    outer loop
      vertex -38 0 0
      vertex -37.5433 2.2961 2
      vertex -37.5433 2.2961 0
    endloop
  endfacet
  facet normal -0.980787 0.195081 0
    outer loop
      vertex -38 0 0
      vertex -38 0 2
      vertex -37.5433 2.2961 2
    endloop
  endfacet
  facet normal -0.980787 -0.195081 0
    outer loop
      vertex -37.5433 -2.2961 0
      vertex -38 0 2
      vertex -38 0 0
    endloop
  endfacet
  facet normal -0.980787 -0.195081 0
    outer loop
      vertex -37.5433 -2.2961 0
      vertex -37.5433 -2.2961 2
      vertex -38 0 2
    endloop
  endfacet
  facet normal -0.831456 -0.555591 0
    outer loop
      vertex -36.2426 -4.24263 0
      vertex -37.5433 -2.2961 2
      vertex -37.5433 -2.2961 0
    endloop
  endfacet
  facet normal -0.831456 -0.555591 0
    outer loop
      vertex -36.2426 -4.24263 0
      vertex -36.2426 -4.24263 2
      vertex -37.5433 -2.2961 2
    endloop
  endfacet
  facet normal -0.555579 -0.831464 0
    outer loop
      vertex -34.2961 -5.54327 0
      vertex -36.2426 -4.24263 2
      vertex -36.2426 -4.24263 0
    endloop
  endfacet
  facet normal -0.555579 -0.831464 0
    outer loop
      vertex -34.2961 -5.54327 0
      vertex -34.2961 -5.54327 2
      vertex -36.2426 -4.24263 2
    endloop
  endfacet
  facet normal -0.195093 -0.980785 0
    outer loop
      vertex -32 -6 0
      vertex -34.2961 -5.54327 2
      vertex -34.2961 -5.54327 0
    endloop
  endfacet
  facet normal -0.195093 -0.980785 0
    outer loop
      vertex -32 -6 0
      vertex -32 -6 2
      vertex -34.2961 -5.54327 2
    endloop
  endfacet
  facet normal 0 -1 0
    outer loop
      vertex -23.8065 -6 0
      vertex -32 -6 2
      vertex -32 -6 0
    endloop
  endfacet
  facet normal 0 -1 0
    outer loop
      vertex -23.8065 -6 0
      vertex -23.8065 -6 2
      vertex -32 -6 2
    endloop
  endfacet
  facet normal -0.980787 -0.195081 0
    outer loop
      vertex -23.097 -9.56708 0
      vertex -23.8065 -6 2
      vertex -23.8065 -6 0
    endloop
  endfacet
  facet normal -0.980787 -0.195081 0
    outer loop
      vertex -23.097 -9.56708 0
      vertex -23.097 -9.56708 2
      vertex -23.8065 -6 2
    endloop
  endfacet
  facet normal -0.831472 -0.555567 0
    outer loop
      vertex -17.6777 -17.6777 0
      vertex -23.097 -9.56708 2
      vertex -23.097 -9.56708 0
    endloop
  endfacet
  facet normal -0.831472 -0.555567 0
    outer loop
      vertex -17.6777 -17.6777 0
      vertex -17.6777 -17.6777 2
      vertex -23.097 -9.56708 2
    endloop
  endfacet
  facet normal -0.555567 -0.831472 0
    outer loop
      vertex -9.56708 -23.097 0
      vertex -17.6777 -17.6777 2
      vertex -17.6777 -17.6777 0
    endloop
  endfacet
  facet normal -0.555567 -0.831472 0
    outer loop
      vertex -9.56708 -23.097 0
      vertex -9.56708 -23.097 2
      vertex -17.6777 -17.6777 2
    endloop
  endfacet
  facet normal -0.195089 -0.980785 0
    outer loop
      vertex 0 -25 0
      vertex -9.56708 -23.097 2
      vertex -9.56708 -23.097 0
    endloop
  endfacet
  facet normal -0.195089 -0.980785 0
    outer loop
      vertex 0 -25 0
      vertex 0 -25 2
      vertex -9.56708 -23.097 2
    endloop
  endfacet
  facet normal 0.195089 -0.980785 0
    outer loop
      vertex 9.56708 -23.097 0
      vertex 0 -25 2
      vertex 0 -25 0
    endloop
  endfacet
  facet normal 0.195089 -0.980785 0
    outer loop
      vertex 9.56708 -23.097 0
      vertex 9.56708 -23.097 2
      vertex 0 -25 2
    endloop
  endfacet
  facet normal 0.555602 0.831448 -0
    outer loop
      vertex -33.4142 -1.4142 0
      vertex -33.4142 -1.4142 2
      vertex -32.7654 -1.84775 0
    endloop
  endfacet
  facet normal 0.555602 0.831448 0
    outer loop
      vertex -32.7654 -1.84775 2
      vertex -32.7654 -1.84775 0
      vertex -33.4142 -1.4142 2
    endloop
  endfacet
  facet normal 0.831492 0.555537 -0
    outer loop
      vertex -33.8477 -0.765366 0
      vertex -33.8477 -0.765366 2
      vertex -33.4142 -1.4142 0
    endloop
  endfacet
  facet normal 0.831492 0.555537 0
    outer loop
      vertex -33.4142 -1.4142 2
      vertex -33.4142 -1.4142 0
      vertex -33.8477 -0.765366 2
    endloop
  endfacet
  facet normal 0.980771 0.195163 -0
    outer loop
      vertex -34 0 0
      vertex -34 0 2
      vertex -33.8477 -0.765366 0
    endloop
  endfacet
  facet normal 0.980771 0.195163 0
    outer loop
      vertex -33.8477 -0.765366 2
      vertex -33.8477 -0.765366 0
      vertex -34 0 2
    endloop
  endfacet
  facet normal 0.980771 -0.195163 0
    outer loop
      vertex -33.8477 0.765366 0
      vertex -33.8477 0.765366 2
      vertex -34 0 0
    endloop
  endfacet
  facet normal 0.980771 -0.195163 0
    outer loop
      vertex -34 0 2
      vertex -34 0 0
      vertex -33.8477 0.765366 2
    endloop
  endfacet
  facet normal 0.831492 -0.555537 0
    outer loop
      vertex -33.4142 1.4142 0
      vertex -33.4142 1.4142 2
      vertex -33.8477 0.765366 0
    endloop
  endfacet
  facet normal 0.831492 -0.555537 0
    outer loop
      vertex -33.8477 0.765366 2
      vertex -33.8477 0.765366 0
      vertex -33.4142 1.4142 2
    endloop
  endfacet
  facet normal 0.555602 -0.831448 0
    outer loop
      vertex -32.7654 1.84775 0
      vertex -32.7654 1.84775 2
      vertex -33.4142 1.4142 0
    endloop
  endfacet
  facet normal 0.555602 -0.831448 0
    outer loop
      vertex -33.4142 1.4142 2
      vertex -33.4142 1.4142 0
      vertex -32.7654 1.84775 2
    endloop
  endfacet
  facet normal 0.195093 -0.980785 0
    outer loop
      vertex -32 2 0
      vertex -32 2 2
      vertex -32.7654 1.84775 0
    endloop
  endfacet
  facet normal 0.195093 -0.980785 0
    outer loop
      vertex -32.7654 1.84775 2
      vertex -32.7654 1.84775 0
      vertex -32 2 2
    endloop
  endfacet
  facet normal -0.195093 -0.980785 0
    outer loop
      vertex -31.2346 1.84775 0
      vertex -31.2346 1.84775 2
      vertex -32 2 0
    endloop
  endfacet
  facet normal -0.195093 -0.980785 -0
    outer loop
      vertex -32 2 2
      vertex -32 2 0
      vertex -31.2346 1.84775 2
    endloop
  endfacet
  facet normal -0.555602 -0.831448 0
    outer loop
      vertex -30.5858 1.4142 0
      vertex -30.5858 1.4142 2
      vertex -31.2346 1.84775 0
    endloop
  endfacet
  facet normal -0.555602 -0.831448 -0
    outer loop
      vertex -31.2346 1.84775 2
      vertex -31.2346 1.84775 0
      vertex -30.5858 1.4142 2
    endloop
  endfacet
  facet normal -0.831432 -0.555626 0
    outer loop
      vertex -30.1522 0.765366 0
      vertex -30.1522 0.765366 2
      vertex -30.5858 1.4142 0
    endloop
  endfacet
  facet normal -0.831432 -0.555626 -0
    outer loop
      vertex -30.5858 1.4142 2
      vertex -30.5858 1.4142 0
      vertex -30.1522 0.765366 2
    endloop
  endfacet
  facet normal -0.980795 -0.19504 0
    outer loop
      vertex -30 0 0
      vertex -30 0 2
      vertex -30.1522 0.765366 0
    endloop
  endfacet
  facet normal -0.980795 -0.19504 -0
    outer loop
      vertex -30.1522 0.765366 2
      vertex -30.1522 0.765366 0
      vertex -30 0 2
    endloop
  endfacet
  facet normal -0.980795 0.19504 0
    outer loop
      vertex -30.1522 -0.765366 0
      vertex -30.1522 -0.765366 2
      vertex -30 0 0
    endloop
  endfacet
  facet normal -0.980795 0.19504 0
    outer loop
      vertex -30 0 2
      vertex -30 0 0
      vertex -30.1522 -0.765366 2
    endloop
  endfacet
  facet normal -0.831432 0.555626 0
    outer loop
      vertex -30.5858 -1.4142 0
      vertex -30.5858 -1.4142 2
      vertex -30.1522 -0.765366 0
    endloop
  endfacet
  facet normal -0.831432 0.555626 0
    outer loop
      vertex -30.1522 -0.765366 2
      vertex -30.1522 -0.765366 0
      vertex -30.5858 -1.4142 2
    endloop
  endfacet
  facet normal -0.555602 0.831448 0
    outer loop
      vertex -31.2346 -1.84775 0
      vertex -31.2346 -1.84775 2
      vertex -30.5858 -1.4142 0
    endloop
  endfacet
  facet normal -0.555602 0.831448 0
    outer loop
      vertex -30.5858 -1.4142 2
      vertex -30.5858 -1.4142 0
      vertex -31.2346 -1.84775 2
    endloop
  endfacet
  facet normal -0.195093 0.980785 0
    outer loop
      vertex -32 -2 0
      vertex -32 -2 2
      vertex -31.2346 -1.84775 0
    endloop
  endfacet
  facet normal -0.195093 0.980785 0
    outer loop
      vertex -31.2346 -1.84775 2
      vertex -31.2346 -1.84775 0
      vertex -32 -2 2
    endloop
  endfacet
  facet normal 0.195093 0.980785 -0
    outer loop
      vertex -32.7654 -1.84775 0
      vertex -32.7654 -1.84775 2
      vertex -32 -2 0
    endloop
  endfacet
  facet normal 0.195093 0.980785 0
    outer loop
      vertex -32 -2 2
      vertex -32 -2 0
      vertex -32.7654 -1.84775 2
    endloop
  endfacet
  facet normal 0.555602 0.831448 -0
    outer loop
      vertex 30.5858 -1.4142 0
      vertex 30.5858 -1.4142 2
      vertex 31.2346 -1.84775 0
    endloop
  endfacet
  facet normal 0.555602 0.831448 0
    outer loop
      vertex 31.2346 -1.84775 2
      vertex 31.2346 -1.84775 0
      vertex 30.5858 -1.4142 2
    endloop
  endfacet
  facet normal 0.831432 0.555626 -0
    outer loop
      vertex 30.1522 -0.765366 0
      vertex 30.1522 -0.765366 2
      vertex 30.5858 -1.4142 0
    endloop
  endfacet
  facet normal 0.831432 0.555626 0
    outer loop
      vertex 30.5858 -1.4142 2
      vertex 30.5858 -1.4142 0
      vertex 30.1522 -0.765366 2
    endloop
  endfacet
  facet normal 0.980795 0.19504 -0
    outer loop
      vertex 30 0 0
      vertex 30 0 2
      vertex 30.1522 -0.765366 0
    endloop
  endfacet
  facet normal 0.980795 0.19504 0
    outer loop
      vertex 30.1522 -0.765366 2
      vertex 30.1522 -0.765366 0
      vertex 30 0 2
    endloop
  endfacet
  facet normal 0.980795 -0.19504 0
    outer loop
      vertex 30.1522 0.765366 0
      vertex 30.1522 0.765366 2
      vertex 30 0 0
    endloop
  endfacet
  facet normal 0.980795 -0.19504 0
    outer loop
      vertex 30 0 2
      vertex 30 0 0
      vertex 30.1522 0.765366 2
    endloop
  endfacet
  facet normal 0.831432 -0.555626 0
    outer loop
      vertex 30.5858 1.4142 0
      vertex 30.5858 1.4142 2
      vertex 30.1522 0.765366 0
    endloop
  endfacet
  facet normal 0.831432 -0.555626 0
    outer loop
      vertex 30.1522 0.765366 2
      vertex 30.1522 0.765366 0
      vertex 30.5858 1.4142 2
    endloop
  endfacet
  facet normal 0.555602 -0.831448 0
    outer loop
      vertex 31.2346 1.84775 0
      vertex 31.2346 1.84775 2
      vertex 30.5858 1.4142 0
    endloop
  endfacet
  facet normal 0.555602 -0.831448 0
    outer loop
      vertex 30.5858 1.4142 2
      vertex 30.5858 1.4142 0
      vertex 31.2346 1.84775 2
    endloop
  endfacet
  facet normal 0.195093 -0.980785 0
    outer loop
      vertex 32 2 0
      vertex 32 2 2
      vertex 31.2346 1.84775 0
    endloop
  endfacet
  facet normal 0.195093 -0.980785 0
    outer loop
      vertex 31.2346 1.84775 2
      vertex 31.2346 1.84775 0
      vertex 32 2 2
    endloop
  endfacet
  facet normal -0.195093 -0.980785 0
    outer loop
      vertex 32.7654 1.84775 0
      vertex 32.7654 1.84775 2
      vertex 32 2 0
    endloop
  endfacet
  facet normal -0.195093 -0.980785 -0
    outer loop
      vertex 32 2 2
      vertex 32 2 0
      vertex 32.7654 1.84775 2
    endloop
  endfacet
  facet normal -0.555602 -0.831448 0
    outer loop
      vertex 33.4142 1.4142 0
      vertex 33.4142 1.4142 2
      vertex 32.7654 1.84775 0
    endloop
  endfacet
  facet normal -0.555602 -0.831448 -0
    outer loop
      vertex 32.7654 1.84775 2
      vertex 32.7654 1.84775 0
      vertex 33.4142 1.4142 2
    endloop
  endfacet
  facet normal -0.831492 -0.555537 0
    outer loop
      vertex 33.8477 0.765366 0
      vertex 33.8477 0.765366 2
      vertex 33.4142 1.4142 0
    endloop
  endfacet
  facet normal -0.831492 -0.555537 -0
    outer loop
      vertex 33.4142 1.4142 2
      vertex 33.4142 1.4142 0
      vertex 33.8477 0.765366 2
    endloop
  endfacet
  facet normal -0.980771 -0.195163 0
    outer loop
      vertex 34 0 0
      vertex 34 0 2
      vertex 33.8477 0.765366 0
    endloop
  endfacet
  facet normal -0.980771 -0.195163 -0
    outer loop
      vertex 33.8477 0.765366 2
      vertex 33.8477 0.765366 0
      vertex 34 0 2
    endloop
  endfacet
  facet normal -0.980771 0.195163 0
    outer loop
      vertex 33.8477 -0.765366 0
      vertex 33.8477 -0.765366 2
      vertex 34 0 0
    endloop
  endfacet
  facet normal -0.980771 0.195163 0
    outer loop
      vertex 34 0 2
      vertex 34 0 0
      vertex 33.8477 -0.765366 2
    endloop
  endfacet
  facet normal -0.831492 0.555537 0
    outer loop
      vertex 33.4142 -1.4142 0
      vertex 33.4142 -1.4142 2
      vertex 33.8477 -0.765366 0
    endloop
  endfacet
  facet normal -0.831492 0.555537 0
    outer loop
      vertex 33.8477 -0.765366 2
      vertex 33.8477 -0.765366 0
      vertex 33.4142 -1.4142 2
    endloop
  endfacet
  facet normal -0.555602 0.831448 0
    outer loop
      vertex 32.7654 -1.84775 0
      vertex 32.7654 -1.84775 2
      vertex 33.4142 -1.4142 0
    endloop
  endfacet
  facet normal -0.555602 0.831448 0
    outer loop
      vertex 33.4142 -1.4142 2
      vertex 33.4142 -1.4142 0
      vertex 32.7654 -1.84775 2
    endloop
  endfacet
  facet normal -0.195093 0.980785 0
    outer loop
      vertex 32 -2 0
      vertex 32 -2 2
      vertex 32.7654 -1.84775 0
    endloop
  endfacet
  facet normal -0.195093 0.980785 0
    outer loop
      vertex 32.7654 -1.84775 2
      vertex 32.7654 -1.84775 0
      vertex 32 -2 2
    endloop
  endfacet
  facet normal 0.195093 0.980785 -0
    outer loop
      vertex 31.2346 -1.84775 0
      vertex 31.2346 -1.84775 2
      vertex 32 -2 0
    endloop
  endfacet
  facet normal 0.195093 0.980785 0
    outer loop
      vertex 32 -2 2
      vertex 32 -2 0
      vertex 31.2346 -1.84775 2
    endloop
  endfacet
endsolid OpenSCAD_Model
